<svg width="72" height="72" viewBox="0 0 72 72" fill="none" xmlns="http://www.w3.org/2000/svg">
<g id="logo 1" clip-path="url(#clip0_8_55)">
<g id="layer1">
<g id="g9978">
<path id="path6499" d="M35.5955 71.191C55.2544 71.191 71.191 55.2544 71.191 35.5955C71.191 15.9367 55.2544 0 35.5955 0C15.9367 0 0 15.9367 0 35.5955C0 55.2544 15.9367 71.191 35.5955 71.191Z" fill="#008000"/>
<path id="path2688-3-9" d="M37.3979 40.7036C37.172 40.4125 33.994 40.9258 36.5949 43.2049L42.7704 46.3033C48.2475 49.4866 49.7105 52.9278 53.3712 54.7032C54.7023 55.3488 56.8483 55.4023 57.682 55.7594C58.8145 56.2446 59.5918 57.2547 64.6075 53.2354C67.2947 49.3651 66.3888 47.1786 65.5362 46.8372C64.4586 46.4056 64.7672 44.0118 64.2423 42.6477C63.6364 41.0729 63.0997 39.4231 62.1089 38.0573C61.3058 36.9503 59.5447 35.6255 58.2512 34.4219C57.3662 33.5984 55.4539 31.6675 55.5806 31.9682C53.6613 32.0445 54.4576 33.7332 54.574 34.6952C54.7193 35.8966 58.1714 38.686 56.5623 37.5692C55.0139 36.4945 52.0654 34.56 49.7668 33.1343C47.6934 31.8484 43.4593 29.421 43.4593 29.421C41.3984 28.2693 39.5858 29.8838 42.1356 31.8653L50.3744 38.268C50.1971 37.2732 38.8042 32.1285 38.8016 32.1941C36.8161 31.2142 35.0549 33.2524 37.9629 34.8393C41.5759 36.8108 44.7064 39.1405 47.9173 41.4541C47.7539 40.8739 37.0602 35.8995 37.0513 35.9277C36.7931 35.374 33.1276 36.6134 36.2069 38.4699C39.6785 40.5629 42.9873 42.5168 45.9719 44.8351C43.1483 42.511 37.4046 40.6374 37.3979 40.7036Z" fill="white"/>
<path id="path2688-3-9-4" d="M20.8767 43.1106C21.6533 43.9722 22.2937 48.7005 18.3292 43.7524L13.3683 36.975L11.1452 34.2036C9.12113 31.2538 7.26374 28.9434 6.07324 25.9381C5.59344 24.7269 5.58488 22.9656 5.28164 22.1108C4.86968 20.9497 3.9112 20.1095 8.24233 15.3604C12.2762 12.9255 14.4004 13.9691 14.6868 14.8417C15.0486 15.9447 17.5543 15.5665 18.7852 16.4002C20.0757 17.2745 21.3786 18.1279 23.0099 18.7478C24.5084 19.6863 31.7016 20.7902 30.9633 21.3362C30.7647 23.2467 29.7412 23.5738 27.5181 23.7047C25.8676 23.802 22.8421 22.734 23.3634 24.3885C23.9299 26.1862 26.231 29.1288 27.8741 30.9593C28.0555 31.1615 32.6906 36.991 32.6906 36.991C33.6242 37.8034 34.7726 42.8279 29.9551 38.0846L22.2713 30.5193C22.4287 30.7407 29.2881 41.6051 29.2881 41.6051C30.1148 42.5245 30.8358 47.5362 26.5948 42.2734L18.935 32.7681C19.0815 32.9746 25.4504 43.1137 25.4504 43.1137C26.2251 43.9672 26.7889 48.7174 22.8596 43.7942L15.4368 34.4939C17.3197 37.4693 20.8767 43.1106 20.8767 43.1106Z" fill="white"/>
</g>
</g>
</g>
<defs>
<clipPath id="clip0_8_55">
<rect width="71.191" height="71.191" fill="white"/>
</clipPath>
</defs>
</svg>
